<?xml version='1.0' encoding='utf-8'?>
<svg xmlns="http://www.w3.org/2000/svg" viewBox="-372.0 -372.0 1116.0 962.0" width="372" height="218" preserveAspectRatio="xMidYMid meet" opacity="0.3">
  <g transform="rotate(45)"><path d="M 8 8 L 8 69 L 43 103 L 45 8 Z" fill="#A2AADB" />
  <path d="M 97 7 L 62 9 L 63 211 L 99 179 Z" fill="#A2AADB" />
  <path d="M 122 8 L 121 210 L 157 212 L 159 8 Z" fill="#A2AADB" />
  <path d="M 176 8 L 175 98 L 176 102 L 180 102 L 211 72 L 213 41 L 186 13 Z" fill="#A2AADB" />
  <path d="M 176 114 L 176 211 L 180 211 L 212 179 L 213 151 L 186 120 Z" fill="#A2AADB" />
  <path d="M 232 8 L 232 211 L 267 211 L 268 41 Z" fill="#A2AADB" />
  <path d="M 280 8 L 279 210 L 311 212 L 316 210 L 315 38 Z" fill="#A2AADB" />
  <path d="M 327 8 L 327 211 L 363 211 L 364 40 Z" fill="#A2AADB" />
</g></svg>